<svg width="360" height="360" viewBox="0 0 360 360" fill="none" xmlns="http://www.w3.org/2000/svg"><path fill-rule="evenodd" clip-rule="evenodd" d="M180 360c99.41 0 180-80.59 180-180C360 80.589 279.41 0 180 0 80.589 0 0 80.589 0 180c0 99.41 80.589 180 180 180Zm0-21.6c87.482 0 158.4-70.918 158.4-158.4S267.482 21.6 180 21.6 21.6 92.518 21.6 180 92.518 338.4 180 338.4Zm0-21.6c75.553 0 136.8-61.247 136.8-136.8 0-75.552-61.247-136.8-136.8-136.8-75.552 0-136.8 61.248-136.8 136.8 0 75.553 61.248 136.8 136.8 136.8Zm0-21.6c63.623 0 115.2-51.577 115.2-115.2 0-63.623-51.577-115.2-115.2-115.2-63.623 0-115.2 51.577-115.2 115.2 0 63.623 51.577 115.2 115.2 115.2ZM273.6 180c0 51.694-41.906 93.6-93.6 93.6-51.694 0-93.6-41.906-93.6-93.6 0-51.694 41.906-93.6 93.6-93.6 51.694 0 93.6 41.906 93.6 93.6Zm-21.6 0c0 39.764-32.236 72-72 72-39.765 0-72-32.236-72-72 0-39.765 32.235-72 72-72 39.764 0 72 32.235 72 72Z" fill="none"/><style>path{fill:#050505}@media(prefers-color-scheme:dark){path{fill:white}}</style></svg>